<svg xmlns="http://www.w3.org/2000/svg" width="256" height="256" viewBox="0 0 100 100"><rect width="100" height="100" rx="50" fill="#0e0e0e"></rect><path d="M71.75 44.78L71.75 44.78Q71.75 52.01 69.05 57.04Q66.35 62.08 61.75 64.86L61.75 64.86Q64.82 66.24 68.18 67.30Q71.53 68.36 74.38 69.24L74.38 69.24Q74.45 69.67 74.45 70.00Q74.45 70.33 74.45 70.62L74.45 70.62Q74.45 74.78 72.30 76.68Q70.15 78.58 66.64 78.58L66.64 78.58Q63.29 78.58 59.71 76.72Q56.13 74.86 52.41 71.35L52.41 71.35L49.05 68.21L48.61 68.21Q43.65 68.21 39.42 66.68Q35.18 65.15 32.12 62.19Q29.05 59.23 27.30 54.85Q25.55 50.47 25.55 44.78L25.55 44.78Q25.55 39.09 27.33 34.74Q29.12 30.40 32.22 27.44Q35.33 24.49 39.52 22.95Q43.72 21.42 48.61 21.42L48.61 21.42Q53.50 21.42 57.70 22.95Q61.90 24.49 65.04 27.44Q68.18 30.40 69.97 34.74Q71.75 39.09 71.75 44.78ZM58.61 44.78L58.61 44.78Q58.61 38.21 55.91 34.96Q53.21 31.71 48.61 31.71L48.61 31.71Q44.16 31.71 41.42 34.93Q38.69 38.14 38.69 44.78L38.69 44.78Q38.69 51.42 41.39 54.67Q44.09 57.92 48.69 57.92L48.69 57.92Q53.21 57.92 55.91 54.67Q58.61 51.42 58.61 44.78Z" fill="#fff"></path></svg>